<svg version="1.1" class="has-solid " viewBox="0 0 36 36" preserveAspectRatio="xMidYMid meet" xmlns="http://www.w3.org/2000/svg" xmlns:xlink="http://www.w3.org/1999/xlink" focusable="false" role="img" width="22" height="22" fill="#0ac18f"><path class="clr-i-outline clr-i-outline-path-1" d="M18,6A12,12,0,1,0,30,18,12,12,0,0,0,18,6Zm0,22A10,10,0,1,1,28,18,10,10,0,0,1,18,28Z"/><path class="clr-i-outline clr-i-outline-path-2" d="M16.34,23.74l-5-5a1,1,0,0,1,1.41-1.41l3.59,3.59,6.78-6.78a1,1,0,0,1,1.41,1.41Z"/><path class="clr-i-solid clr-i-solid-path-1" d="M30,18A12,12,0,1,1,18,6,12,12,0,0,1,30,18Zm-4.77-2.16a1.4,1.4,0,0,0-2-2l-6.77,6.77L13,17.16a1.4,1.4,0,0,0-2,2l5.45,5.45Z" style="display:none"/></svg>