<svg version="1.1" class="has-solid " viewBox="0 0 36 36" preserveAspectRatio="xMidYMid meet" xmlns="http://www.w3.org/2000/svg" xmlns:xlink="http://www.w3.org/1999/xlink" focusable="false" role="img" width="16" height="16" fill="currentColor"><path d="M29.5,7h-19A1.5,1.5,0,0,0,9,8.5v24A1.5,1.5,0,0,0,10.5,34h19A1.5,1.5,0,0,0,31,32.5V8.5A1.5,1.5,0,0,0,29.5,7ZM29,32H11V9H29Z" class="clr-i-outline clr-i-outline-path-1"/><path d="M26,3.5A1.5,1.5,0,0,0,24.5,2H5.5A1.5,1.5,0,0,0,4,3.5v24A1.5,1.5,0,0,0,5.5,29H6V4H26Z" class="clr-i-outline clr-i-outline-path-2"/><path d="M27,3.56A1.56,1.56,0,0,0,25.43,2H5.57A1.56,1.56,0,0,0,4,3.56V28.44A1.56,1.56,0,0,0,5.57,30h.52V4.07H27Z" class="clr-i-solid clr-i-solid-path-1" style="display:none"/><rect x="8" y="6" width="23" height="28" rx="1.5" ry="1.5" class="clr-i-solid clr-i-solid-path-2" style="display:none"/></svg>